<?xml version="1.0"?>
<svg id="_レイヤー_2" data-name="レイヤー 2" xmlns="http://www.w3.org/2000/svg" viewBox="0 0 317.3 147.58">
  <g id="_レイヤー_2-2" data-name="レイヤー 2" fill="#2b2622">
    <g>
      <path class="cls-1" d="M40.35,24.9C18.04,24.92-.02,44.6,0,68.85c.02,24.25,18.13,43.89,40.43,43.87,22.31-.02,40.38-19.7,40.35-43.94-.02-24.25-18.13-43.89-40.44-43.87M40.43,109.2c-10.67.01-19.34-18.07-19.36-40.38-.02-22.31,8.61-40.4,19.28-40.41,10.67-.01,19.34,18.07,19.36,40.38.02,22.31-8.61,40.4-19.28,40.41"></path>
      <path class="cls-1" d="M137.43,24.66c-22.31.02-40.38,19.7-40.35,43.94.02,24.25,18.13,43.89,40.44,43.87,22.31-.02,40.38-19.7,40.35-43.94-.02-24.25-18.13-43.89-40.44-43.87M137.51,108.96c-10.67.01-19.34-18.07-19.36-40.38-.02-22.31,8.61-40.4,19.28-40.41s19.34,18.07,19.36,40.38c.02,22.31-8.61,40.4-19.28,40.41"></path>
      <path class="cls-1" d="M313.57,64.87l-.03-35.11c0-.97-.79-1.76-1.76-1.75l-17.56.02c-.97,0-1.76.79-1.75,1.76v12.63c.01.51.23.99.62,1.32,1.48,1.27,3.14,2.81,4.13,3.81,18.08,18.04,19.94,37.2,12.46,44.7-7.88,7.9-24.46,4.46-39.11-7.35l-.05-55.09c0-.97-.79-1.76-1.76-1.75l-17.56.02c-.97,0-1.76.79-1.75,1.76l.06,63.64c0,.47.19.92.52,1.25,17.23,17.3,39.56,22.63,49.74,12.44l12.41-12.43c6.56-6.57,6.65-17.99,1.41-29.85"></path>
      <path class="cls-1" d="M222.21,10.53c0,5.82-4.71,10.54-10.53,10.55-5.82,0-10.54-4.71-10.55-10.53C201.13,4.73,205.85,0,211.67,0c5.82,0,10.54,4.71,10.55,10.53"></path>
      <path class="cls-1" d="M222.3,101.05l-.07-71.2c0-.97-.79-1.76-1.76-1.75l-17.56.02c-.97,0-1.76.79-1.75,1.76l.05,48.12c0,.51.22.98.61,1.32,1.26,1.09,2.5,2.24,3.71,3.45,15.79,15.76,21.37,35.77,12.46,44.7-8.9,8.92-28.95,3.36-44.7-12.36-.69-.69-1.81-.71-2.5-.01l-12.41,12.43c-.68.68-.69,1.79,0,2.47,17.31,17.29,39.42,22.68,49.7,12.38l12.41-12.43c6.38-6.39,6.64-17.38,1.83-28.89"></path>
    </g>
  </g>
</svg>
